# xmcd
#
# Track frame offsets: 
#        150
#        15988
#        32502
#        48494
#        68116
#        86043
#        104102
#        120797
#        143257
#        162514
#        180667
#        201079
#        215527
#
# Disc length: 3100 seconds
#
# Revision: 0
# Processed by: cddbd v1.5.2PL0 Copyright (c) Steve Scherf et al.
# Submitted via: ExactAudioCopyFreeDBPlugin 1.0
#
DISCID=a90c1a0d
DTITLE=群星 - 東方臉譜
DYEAR=2009
DGENRE=
TTITLE0=說唱臉譜
TTITLE1=蘇三起解
TTITLE2=北京一夜
TTITLE3=北京歡迎你
TTITLE4=冰糖葫蘆
TTITLE5=粉墨人生
TTITLE6=編花籃
TTITLE7=故鄉是北京
TTITLE8=紫竹調
TTITLE9=未了情
TTITLE10=前門情思大碗茶
TTITLE11=故事就是故事
TTITLE12=江山無限
EXTD=
EXTT0=
EXTT1=
EXTT2=
EXTT3=
EXTT4=
EXTT5=
EXTT6=
EXTT7=
EXTT8=
EXTT9=
EXTT10=
EXTT11=
EXTT12=
PLAYORDER=
